inDegrees=no
num_controls=7
num_derivatives=13
num_iterations=101
num_multipliers=7
num_parameters=0
num_slacks=7
num_states=26
objective=5.668039
objective_accelerations=0.217474
objective_balance=0.051041
objective_effort=0.345801
objective_height=4.944367
objective_ligament=0.109357
solver_duration=875.357352
status=Solve_Succeeded
success=true
DataType=double
version=3
OpenSimVersion=4.4-2022-07-23-0e9fedc
endheader
time	/jointset/ground_pelvis/pelvis_tilt/value	/jointset/ground_pelvis/pelvis_tx/value	/jointset/ground_pelvis/pelvis_ty/value	/jointset/hip_r/hip_flexion_r/value	/jointset/hip_r/hip_adduction_r/value	/jointset/hip_r/hip_rotation_r/value	/jointset/back/lumbar_extension/value	/jointset/patellofemoral_r/patellar_flexion_r/value	/jointset/knee_r/knee_flexion_r/value	/jointset/knee_r/knee_adduction_r/value	/jointset/knee_r/knee_rotation_r/value	/jointset/ankle_r/ankle_angle_r/value	/jointset/subtalar_r/subtalar_angle_r/value	/jointset/ground_pelvis/pelvis_tilt/speed	/jointset/ground_pelvis/pelvis_tx/speed	/jointset/ground_pelvis/pelvis_ty/speed	/jointset/hip_r/hip_flexion_r/speed	/jointset/hip_r/hip_adduction_r/speed	/jointset/hip_r/hip_rotation_r/speed	/jointset/back/lumbar_extension/speed	/jointset/patellofemoral_r/patellar_flexion_r/speed	/jointset/knee_r/knee_flexion_r/speed	/jointset/knee_r/knee_adduction_r/speed	/jointset/knee_r/knee_rotation_r/speed	/jointset/ankle_r/ankle_angle_r/speed	/jointset/subtalar_r/subtalar_angle_r/speed	/forceset/tau_hip_flexion_r	/forceset/tau_hip_adduction_r	/forceset/tau_hip_rotation_r	/forceset/tau_knee_flexion_r	/forceset/tau_ankle_angle_r	/forceset/tau_subtalar_angle_r	/forceset/tau_lumbar_extension	lambda_cid13_p0	lambda_cid14_p0	lambda_cid14_p1	lambda_cid14_p2	lambda_cid14_p3	lambda_cid14_p4	lambda_cid14_p5	/jointset/ground_pelvis/pelvis_tilt/accel	/jointset/ground_pelvis/pelvis_tx/accel	/jointset/ground_pelvis/pelvis_ty/accel	/jointset/hip_r/hip_flexion_r/accel	/jointset/hip_r/hip_adduction_r/accel	/jointset/hip_r/hip_rotation_r/accel	/jointset/back/lumbar_extension/accel	/jointset/patellofemoral_r/patellar_flexion_r/accel	/jointset/knee_r/knee_flexion_r/accel	/jointset/knee_r/knee_adduction_r/accel	/jointset/knee_r/knee_rotation_r/accel	/jointset/ankle_r/ankle_angle_r/accel	/jointset/subtalar_r/subtalar_angle_r/accel	gamma_cid13_p0	gamma_cid14_p0	gamma_cid14_p1	gamma_cid14_p2	gamma_cid14_p3	gamma_cid14_p4	gamma_cid14_p5
0.5	-0.003233539817210967	0.09775290583699549	0.9013459675677898	0.4387021999123785	-0.2224710357703651	-0.1700088906622014	-0.2937646671026085	0.5312903690962395	0.5312903690961094	0.04886368669460884	0.174522213016978	0.2638107072645641	0.06762122816367681	-0.002524247961385117	0.002980653075044721	-0.1765758574096717	0.7236401293483065	-0.0019663419591846	0.1756395330984282	-0.6039163117852316	1.247085836560877	1.247085836561793	-0.2637782110712427	-9.390664090560093e-05	0.6064800357987731	0.1799895439904995	-0.01088421724605797	-0.009244874198315963	0.001751570020609361	-0.3028827051227535	0.02065035620458505	-0.01773726668499974	0.0907382036170318	-39.41341435448049	-36.50216682148201	-9.855459880343787	-2.810873675940167	9.669267563472861	-680.6911699552292	53.11662031869076	-0.100074982719809	0.03342992064875556	-0.2135977749528529	-0.3971677412280998	-0.09493457625307633	-0.4474250048031053	0.8839274466423016	-0.8309403470721681	-0.830940347072168	0.3523815289152548	-0.007165429152311633	-0.4554770318378676	-0.0974462982316943	-7.343284120109068e-08	-6.165989350493488e-08	6.363089561407585e-07	-7.203844477555098e-07	-3.177176621360758e-08	-4.913895241428484e-08	8.739794676120859e-07
0.51	-0.003263988045374519	0.09778437771326882	0.8995698003190893	0.4459181545561307	-0.222496032994643	-0.1682744397865794	-0.2997586714228829	0.5437184096644077	0.5437184096644596	0.04624504892979121	0.1745212344534209	0.269851934695967	0.06941517685444194	-0.00355360644575493	0.003312797673381954	-0.1786220888494473	0.7194558010774681	-0.003035168822629256	0.1712569999129042	-0.594824970402519	1.238375885426218	1.238375885426475	-0.2599237921318211	-9.994603405098329e-05	0.6016966142152657	0.1787712775159564	-0.0142286236282323	-0.007568554275513039	0.002239811774355757	-0.3045684307932283	0.01529235552399497	-0.01684517132210635	0.09405284197837546	-38.95933014502895	-38.24800043079823	-9.849608275266965	-2.725107421002915	10.33548436067325	-682.1613743777384	52.94364678319573	-0.1026035151031596	0.03296175221669991	-0.1948183874913723	-0.4433212539749912	-0.1132410717526853	-0.4328273161103472	0.9306747645706005	-0.9129670664370639	-0.912967066535832	0.4058367674514505	0.002844305364605045	-0.5001115802279967	-0.1383414508670081	-6.681795965084848e-08	-5.808324465409355e-08	5.642660878951726e-07	-6.927077333021874e-07	-2.706659988469889e-08	-4.255258603691538e-08	8.15277974105424e-07
0.52	-0.003304377305154193	0.09781914204008349	0.89777423424419	0.4530894147403782	-0.2225317953536191	-0.1665836462109501	-0.3056599748732392	0.5560549618073061	0.5560549618075095	0.04366572829260718	0.1745202289958322	0.2758432605398066	0.07119607795470392	-0.004512454282427284	0.003639143183309443	-0.1804556226493153	0.7147012374480876	-0.004119368900667747	0.1669080731000674	-0.5853761378004022	1.22878815150058	1.228788151500178	-0.2559147855526092	-9.928543678215023e-05	0.5964997182869228	0.1773800258893695	-0.01757303001034831	-0.005892234352477816	0.002728053527450081	-0.306254156463668	0.009934354843486591	-0.01595307595886093	0.09736748033970882	-38.48181338074918	-40.00307045366111	-9.841495668771726	-2.64413178520554	11.00472971488264	-683.7815873035717	52.8289299480198	-0.08597285318038385	0.03227010296682523	-0.1710582469713231	-0.5112148129366104	-0.09800921917190002	-0.4407037302657889	0.955425690523282	-1.006496905268123	-1.006496905268148	0.3832990568733517	-0.005825431069474556	-0.5381719008049819	-0.1320433286404485	-5.859012697464729e-08	-5.675704573929533e-08	4.682884280435311e-07	-6.745882363049524e-07	-1.809592818761202e-08	-4.68895618626566e-08	7.493834550107645e-07
0.53	-0.003354171552255732	0.09785719494582364	0.8959614735040405	0.4602101843611714	-0.2225783258317793	-0.1649361095546942	-0.311464777838671	0.5682908506121844	0.5682908506125914	0.04112711752904491	0.1745190465497342	0.281780464959732	0.07296234719372739	-0.005452381599839583	0.003975940988102457	-0.1820535439543844	0.7093489998921956	-0.005179346041042951	0.1625869799137112	-0.5755012795501002	1.218205923166109	1.218205923165715	-0.2517978041156853	-0.0001315388777680615	0.5908633191851039	0.1758535266228459	-0.02070651414588409	-0.004387424559661772	0.003219499050880136	-0.3084503901561771	0.005309067175152342	-0.01523249984773993	0.1005968985742869	-37.98297556014349	-41.54441431413591	-9.882510401617093	-2.541549942396792	11.50457514178828	-685.6350838887648	52.69305123494739	-0.09890596183655344	0.03505739604445497	-0.1477216917971827	-0.5627871928855842	-0.1089720994125526	-0.4297531627151568	1.015992253013622	-1.111627890764985	-1.111627890763529	0.427340841532943	-0.001182570820566373	-0.5880573826085377	-0.1660108147209047	-5.289453881338325e-08	-5.40987698719399e-08	4.085153615596099e-07	-6.474763192114675e-07	-1.36448321664399e-08	-4.583111339816364e-08	6.960803425546295e-07
